<svg width="106" height="18" viewBox="0 0 106 18" fill="none" xmlns="http://www.w3.org/2000/svg">
<path d="M0.99 10.51C0.99 8.25133 1.55467 6.54267 2.684 5.384C3.828 4.22533 5.46333 3.646 7.59 3.646C8.26467 3.646 8.85133 3.70467 9.35 3.822C9.84867 3.93933 10.3693 4.09333 10.912 4.284C11.484 4.48933 11.902 4.592 12.166 4.592C12.1073 4.88533 12.078 5.39133 12.078 6.11C12.078 6.31533 12.0927 6.594 12.122 6.946C12.1513 7.18067 12.166 7.35667 12.166 7.474H11.286C11.3007 7.40067 11.308 7.29067 11.308 7.144C11.308 6.22 10.978 5.50133 10.318 4.988C9.67267 4.46 8.72667 4.196 7.48 4.196C6.204 4.196 5.17733 4.73133 4.4 5.802C3.62267 6.87267 3.234 8.442 3.234 10.51C3.234 14.5873 4.686 16.626 7.59 16.626C8.25 16.626 8.78533 16.56 9.196 16.428C9.60667 16.2813 10.01 16.01 10.406 15.614V12.094C10.406 11.7713 10.2667 11.61 9.988 11.61L8.69 11.654V11.016H13.772V11.654L12.87 11.61C12.738 11.61 12.6353 11.654 12.562 11.742C12.4887 11.83 12.452 11.94 12.452 12.072V16.23C12.3933 16.2153 12.298 16.208 12.166 16.208C11.8873 16.208 11.4327 16.3253 10.802 16.56C10.1567 16.78 9.592 16.9413 9.108 17.044C8.63867 17.1613 8.096 17.22 7.48 17.22C5.42667 17.22 3.828 16.6553 2.684 15.526C1.55467 14.382 0.99 12.71 0.99 10.51ZM20.5367 7.54C21.1087 7.54 21.5487 7.70133 21.8567 8.024C22.1793 8.34667 22.3407 8.75733 22.3407 9.256C22.3407 9.59333 22.2527 9.85 22.0767 10.026C21.9153 10.202 21.6953 10.29 21.4167 10.29C21.2113 10.29 21.0207 10.2387 20.8447 10.136C20.6833 10.0187 20.6027 9.84267 20.6027 9.608C20.6027 9.476 20.632 9.30733 20.6907 9.102C20.7493 8.89667 20.7787 8.73533 20.7787 8.618C20.7787 8.50067 20.7347 8.398 20.6467 8.31C20.5733 8.20733 20.4487 8.156 20.2727 8.156C19.818 8.156 19.422 8.376 19.0847 8.816C18.7473 9.24133 18.4833 9.77667 18.2927 10.422C18.102 11.0527 17.992 11.6613 17.9627 12.248V16.054C17.9627 16.3327 18.058 16.472 18.2487 16.472L19.5907 16.428V17H15.0807V16.428L15.7847 16.472C15.9753 16.472 16.0707 16.3327 16.0707 16.054V8.728C16.0707 8.43467 15.9753 8.288 15.7847 8.288L14.9927 8.332V7.76H18.0947C18.0653 7.848 18.036 7.99467 18.0067 8.2C17.9773 8.39067 17.9627 8.58133 17.9627 8.772V9.85C18.3 9.02867 18.674 8.442 19.0847 8.09C19.51 7.72333 19.994 7.54 20.5367 7.54ZM27.6432 7.54C28.8018 7.54 29.7332 7.914 30.4372 8.662C31.1558 9.39533 31.5298 10.4073 31.5592 11.698V12.336H25.2232C25.2232 13.6707 25.4505 14.6973 25.9052 15.416C26.3745 16.12 27.0712 16.4793 27.9952 16.494C28.7285 16.494 29.3445 16.3107 29.8432 15.944C30.3565 15.5773 30.7305 15.1227 30.9652 14.58L31.4712 14.954C31.1778 15.658 30.6792 16.2153 29.9752 16.626C29.2858 17.022 28.5232 17.22 27.6872 17.22C24.7098 17.22 23.2212 15.614 23.2212 12.402C23.2212 10.8033 23.5952 9.59333 24.3432 8.772C25.0912 7.95067 26.1912 7.54 27.6432 7.54ZM27.6432 8.134C26.8218 8.134 26.2132 8.47133 25.8172 9.146C25.4358 9.82067 25.2452 10.7007 25.2452 11.786H29.2492C29.3958 11.786 29.5058 11.7347 29.5792 11.632C29.6525 11.5293 29.6892 11.3387 29.6892 11.06C29.6892 10.0627 29.5278 9.32933 29.2052 8.86C28.8972 8.376 28.3765 8.134 27.6432 8.134ZM37.526 7.54C38.6847 7.54 39.616 7.914 40.32 8.662C41.0387 9.39533 41.4127 10.4073 41.442 11.698V12.336H35.106C35.106 13.6707 35.3333 14.6973 35.788 15.416C36.2573 16.12 36.954 16.4793 37.878 16.494C38.6113 16.494 39.2273 16.3107 39.726 15.944C40.2393 15.5773 40.6133 15.1227 40.848 14.58L41.354 14.954C41.0607 15.658 40.562 16.2153 39.858 16.626C39.1687 17.022 38.406 17.22 37.57 17.22C34.5927 17.22 33.104 15.614 33.104 12.402C33.104 10.8033 33.478 9.59333 34.226 8.772C34.974 7.95067 36.074 7.54 37.526 7.54ZM37.526 8.134C36.7047 8.134 36.096 8.47133 35.7 9.146C35.3187 9.82067 35.128 10.7007 35.128 11.786H39.132C39.2787 11.786 39.3887 11.7347 39.462 11.632C39.5353 11.5293 39.572 11.3387 39.572 11.06C39.572 10.0627 39.4107 9.32933 39.088 8.86C38.78 8.376 38.2593 8.134 37.526 8.134ZM53.3268 16.428V17H49.0368V16.428L50.0488 16.472C50.2395 16.428 50.3348 16.2887 50.3348 16.054V11.06C50.3348 10.356 50.2981 9.81333 50.2248 9.432C50.1661 9.05067 50.0341 8.75733 49.8288 8.552C49.6235 8.34667 49.3008 8.244 48.8608 8.244C48.0248 8.244 47.3428 8.60333 46.8148 9.322C46.3015 10.026 46.0228 10.9793 45.9788 12.182V16.054C45.9788 16.3327 46.0741 16.472 46.2648 16.472L47.2768 16.428V17H42.9868V16.428L43.8008 16.472C43.9915 16.428 44.0868 16.2887 44.0868 16.054V8.728C44.0868 8.47867 43.9915 8.332 43.8008 8.288L42.9868 8.332V7.76H46.0888C46.0155 7.98 45.9788 8.23667 45.9788 8.53V9.74C46.2868 9.05067 46.7268 8.51533 47.2988 8.134C47.8708 7.738 48.5308 7.54 49.2788 7.54C50.3201 7.54 51.0681 7.78933 51.5228 8.288C51.9921 8.772 52.2268 9.564 52.2268 10.664V16.054C52.2268 16.3327 52.3221 16.472 52.5128 16.472L53.3268 16.428ZM64.8854 16.428V17H60.5954V16.428L61.6074 16.472C61.7981 16.428 61.8934 16.2887 61.8934 16.054V11.06C61.8934 10.356 61.8567 9.81333 61.7834 9.432C61.7247 9.05067 61.5927 8.75733 61.3874 8.552C61.1821 8.34667 60.8594 8.244 60.4194 8.244C59.5834 8.244 58.9014 8.60333 58.3734 9.322C57.8601 10.026 57.5814 10.9793 57.5374 12.182V16.054C57.5374 16.3327 57.6327 16.472 57.8234 16.472L58.8354 16.428V17H54.5454V16.428L55.3594 16.472C55.5501 16.428 55.6454 16.2887 55.6454 16.054V1.908C55.6454 1.6 55.5501 1.446 55.3594 1.446L54.5454 1.49V0.94H57.5374V9.74C57.8454 9.05067 58.2854 8.51533 58.8574 8.134C59.4294 7.738 60.0894 7.54 60.8374 7.54C61.8787 7.54 62.6267 7.78933 63.0814 8.288C63.5507 8.772 63.7854 9.564 63.7854 10.664V16.054C63.7854 16.3327 63.8807 16.472 64.0714 16.472L64.8854 16.428ZM66.104 12.358C66.104 10.862 66.478 9.68867 67.226 8.838C67.974 7.97267 69.074 7.54 70.526 7.54C71.978 7.54 73.078 7.97267 73.826 8.838C74.574 9.68867 74.948 10.862 74.948 12.358C74.948 13.8833 74.574 15.0787 73.826 15.944C73.078 16.7947 71.978 17.22 70.526 17.22C69.074 17.22 67.974 16.7947 67.226 15.944C66.478 15.0787 66.104 13.8833 66.104 12.358ZM68.106 12.402C68.106 13.8833 68.2893 14.9613 68.656 15.636C69.0373 16.296 69.6607 16.626 70.526 16.626C71.3913 16.626 72.0073 16.296 72.374 15.636C72.7553 14.9613 72.946 13.8833 72.946 12.402C72.946 10.906 72.7553 9.82067 72.374 9.146C72.0073 8.47133 71.3913 8.134 70.526 8.134C69.6607 8.134 69.0373 8.47133 68.656 9.146C68.2893 9.82067 68.106 10.906 68.106 12.402ZM86.4689 16.428V17H83.3449C83.4183 16.824 83.4549 16.296 83.4549 15.416V15.13C83.1616 15.8047 82.7143 16.3253 82.1129 16.692C81.5263 17.044 80.8223 17.22 80.0009 17.22C79.0183 17.22 78.3069 16.9487 77.8669 16.406C77.4416 15.8633 77.2289 14.976 77.2289 13.744V8.728C77.2289 8.43467 77.1336 8.288 76.9429 8.288L76.1509 8.332V7.76H79.1209V13.744C79.1209 14.7413 79.2089 15.4527 79.3849 15.878C79.5609 16.2887 79.9203 16.494 80.4629 16.494C81.2989 16.494 81.9883 16.1787 82.5309 15.548C83.0736 14.9027 83.3816 14.0227 83.4549 12.908L83.4769 8.75C83.4769 8.442 83.3889 8.288 83.2129 8.288L82.1789 8.332V7.76H85.3909V16.054C85.3909 16.3327 85.4863 16.472 85.6769 16.472L86.4689 16.428ZM83.4769 12.16V12.028V12.16ZM88.326 13.876L88.898 13.832C88.898 14.3747 89.0447 14.8587 89.338 15.284C89.6314 15.7093 90.02 16.0393 90.504 16.274C90.988 16.5087 91.516 16.626 92.088 16.626C92.6747 16.626 93.1294 16.4793 93.452 16.186C93.7747 15.878 93.936 15.4673 93.936 14.954C93.936 14.5433 93.8187 14.206 93.584 13.942C93.3494 13.678 92.9534 13.4653 92.396 13.304L90.284 12.71C89.6974 12.534 89.2354 12.2407 88.898 11.83C88.5607 11.4047 88.392 10.884 88.392 10.268C88.392 9.46133 88.6927 8.80867 89.294 8.31C89.8954 7.79667 90.7167 7.54 91.758 7.54C92.0514 7.54 92.308 7.562 92.528 7.606C92.7627 7.65 93.0487 7.72333 93.386 7.826C93.8407 7.958 94.178 8.024 94.398 8.024C94.618 8.024 94.8234 7.96533 95.014 7.848L94.882 10.356H94.398C94.398 9.76933 94.1634 9.256 93.694 8.816C93.2394 8.36133 92.616 8.134 91.824 8.134C91.2667 8.134 90.8267 8.28067 90.504 8.574C90.196 8.86733 90.042 9.24133 90.042 9.696C90.042 10.4147 90.4967 10.8987 91.406 11.148L93.518 11.742C94.266 11.9473 94.794 12.2553 95.102 12.666C95.41 13.062 95.564 13.5827 95.564 14.228C95.564 15.1813 95.2267 15.922 94.552 16.45C93.8774 16.9633 92.9974 17.22 91.912 17.22C91.604 17.22 91.2814 17.1833 90.944 17.11C90.6214 17.0513 90.1227 16.9267 89.448 16.736C89.228 16.6773 89.03 16.648 88.854 16.648C88.5607 16.648 88.348 16.692 88.216 16.78L88.326 13.876ZM101.485 7.54C102.644 7.54 103.575 7.914 104.279 8.662C104.998 9.39533 105.372 10.4073 105.401 11.698V12.336H99.065C99.065 13.6707 99.2923 14.6973 99.747 15.416C100.216 16.12 100.913 16.4793 101.837 16.494C102.57 16.494 103.186 16.3107 103.685 15.944C104.198 15.5773 104.572 15.1227 104.807 14.58L105.313 14.954C105.02 15.658 104.521 16.2153 103.817 16.626C103.128 17.022 102.365 17.22 101.529 17.22C98.5516 17.22 97.063 15.614 97.063 12.402C97.063 10.8033 97.437 9.59333 98.185 8.772C98.933 7.95067 100.033 7.54 101.485 7.54ZM101.485 8.134C100.664 8.134 100.055 8.47133 99.659 9.146C99.2776 9.82067 99.087 10.7007 99.087 11.786H103.091C103.238 11.786 103.348 11.7347 103.421 11.632C103.494 11.5293 103.531 11.3387 103.531 11.06C103.531 10.0627 103.37 9.32933 103.047 8.86C102.739 8.376 102.218 8.134 101.485 8.134Z" fill="white"/>
</svg>
